<svg xmlns="http://www.w3.org/2000/svg" viewBox="0 0 100 100" width="400" height="400">
  <rect width="100" height="100" fill="#4A6842"/>
  <g fill="none" stroke="#F2EDE4" stroke-width="2.5" stroke-linecap="round" stroke-linejoin="round">
    <path d="M 50,80 L 50,60"/>
    <path d="M 50,60 C 44,54 36,49 27,45"/>
    <path d="M 50,60 C 46,52 43,44 41,35"/>
    <path d="M 50,60 C 50,52 50,44 50,32"/>
    <path d="M 50,60 C 54,52 57,44 59,35"/>
    <path d="M 50,60 C 56,54 64,49 73,45"/>
    <circle cx="25" cy="43" r="3" fill="#F2EDE4" stroke="none"/>
    <circle cx="39" cy="33" r="3" fill="#F2EDE4" stroke="none"/>
    <circle cx="50" cy="30" r="3" fill="#F2EDE4" stroke="none"/>
    <circle cx="61" cy="33" r="3" fill="#F2EDE4" stroke="none"/>
    <circle cx="75" cy="43" r="3" fill="#F2EDE4" stroke="none"/>
  </g>
</svg>