<svg xmlns="http://www.w3.org/2000/svg" viewBox="0 0 100 100" width="400" height="400">
  <rect width="100" height="100" fill="#4A6842"/>
  <circle cx="50" cy="50" r="4.5" fill="#F2EDE4" stroke="none"/>
  <path d="M 50,45.5 A 4.5,4.5 0 0,0 50,54.5 A 2.25,2.25 0 0,1 50,50 A 2.25,2.25 0 0,0 50,45.5 Z" fill="#4A6842" stroke="none"/>
  <circle cx="50" cy="47.75" r="1.1" fill="#F2EDE4" stroke="none"/>
  <circle cx="50" cy="52.25" r="1.1" fill="#4A6842" stroke="none"/>
  <path d="M 50.00,44.00 C 50.17,43.98 50.65,43.89 50.99,43.88 C 51.33,43.86 51.68,43.87 52.02,43.92 C 52.37,43.96 52.72,44.04 53.06,44.14 C 53.41,44.24 53.75,44.38 54.08,44.54 C 54.42,44.70 54.74,44.90 55.05,45.12 C 55.36,45.34 55.66,45.60 55.93,45.88 C 56.21,46.15 56.47,46.46 56.70,46.79 C 56.93,47.12 57.15,47.47 57.32,47.84 C 57.50,48.22 57.66,48.61 57.78,49.02 C 57.90,49.42 57.99,49.85 58.04,50.28 C 58.09,50.71 58.11,51.16 58.09,51.60 C 58.07,52.05 58.02,52.50 57.92,52.95 C 57.83,53.39 57.70,53.84 57.53,54.28 C 57.36,54.71 57.15,55.14 56.91,55.55 C 56.66,55.96 56.38,56.36 56.07,56.74 C 55.75,57.11 55.40,57.47 55.02,57.79 C 54.64,58.12 54.23,58.42 53.79,58.68 C 53.36,58.95 52.89,59.18 52.41,59.38 C 51.92,59.57 51.41,59.73 50.90,59.84 C 50.38,59.96 49.84,60.03 49.30,60.06 C 48.76,60.09 48.20,60.08 47.65,60.02 C 47.10,59.96 46.54,59.86 46.00,59.71 C 45.46,59.55 44.91,59.36 44.39,59.12 C 43.87,58.87 43.36,58.59 42.87,58.26 C 42.39,57.93 41.92,57.55 41.49,57.14 C 41.06,56.73 40.65,56.28 40.28,55.79 C 39.91,55.31 39.58,54.79 39.29,54.24 C 39.00,53.69 38.75,53.11 38.55,52.52 C 38.35,51.92 38.19,51.30 38.09,50.67 C 37.99,50.03 37.93,49.38 37.93,48.73 C 37.93,48.08 37.99,47.42 38.09,46.77 C 38.20,46.11 38.36,45.46 38.58,44.82 C 38.79,44.18 39.06,43.55 39.38,42.95 C 39.70,42.34 40.08,41.75 40.50,41.20 C 40.92,40.65 41.39,40.12 41.90,39.63 C 42.41,39.15 42.97,38.69 43.56,38.29 C 44.16,37.89 44.79,37.53 45.45,37.22 C 46.11,36.92 46.80,36.66 47.51,36.46 C 48.22,36.26 48.96,36.11 49.71,36.03 C 50.45,35.95 51.22,35.92 51.97,35.96 C 52.73,36.00 53.50,36.10 54.25,36.26 C 55.01,36.42 55.76,36.65 56.49,36.93 C 57.21,37.22 57.93,37.57 58.61,37.97 C 59.29,38.38 59.95,38.84 60.57,39.36 C 61.18,39.87 61.77,40.45 62.30,41.07 C 62.83,41.68 63.32,42.35 63.75,43.05 C 64.18,43.76 64.56,44.51 64.88,45.28 C 65.19,46.05 65.45,46.87 65.64,47.69 C 65.83,48.51 65.96,49.37 66.02,50.22 C 66.07,51.08 66.06,51.95 65.98,52.82 C 65.89,53.68 65.74,54.55 65.51,55.40 C 65.29,56.25 64.99,57.10 64.63,57.91 C 64.27,58.72 63.83,59.52 63.34,60.27 C 62.84,61.02 62.28,61.75 61.66,62.42 C 61.05,63.09 60.37,63.73 59.64,64.30 C 58.92,64.87 58.13,65.39 57.32,65.84 C 56.50,66.29 55.64,66.69 54.75,67.00 C 53.86,67.32 52.93,67.57 51.99,67.75 C 51.05,67.92 50.08,68.02 49.12,68.04 C 48.15,68.06 47.17,68.00 46.20,67.87 C 45.24,67.73 44.26,67.51 43.32,67.22 C 42.38,66.93 41.44,66.55 40.55,66.11 C 39.66,65.66 38.78,65.14 37.97,64.55 C 37.15,63.96 36.36,63.29 35.64,62.57 C 34.92,61.85 34.24,61.06 33.64,60.22 C 33.04,59.39 32.49,58.49 32.03,57.55 C 31.57,56.62 31.17,55.64 30.85,54.63 C 30.54,53.63 30.30,52.58 30.16,51.53 C 30.01,50.47 29.94,49.39 29.96,48.32 C 29.99,47.24 30.10,46.15 30.29,45.09 C 30.49,44.02 30.77,42.95 31.14,41.92 C 31.51,40.89 31.97,39.87 32.51,38.90 C 33.04,37.93 33.66,36.99 34.35,36.11 C 35.04,35.23 35.82,34.39 36.65,33.63 C 37.48,32.86 38.38,32.15 39.33,31.52 C 40.28,30.90 41.30,30.34 42.35,29.87 C 43.40,29.40 44.51,29.00 45.63,28.70 C 46.75,28.40 47.92,28.19 49.08,28.07 C 50.25,27.96 51.44,27.93 52.62,28.00 C 53.80,28.08 55.00,28.25 56.16,28.51 C 57.33,28.77 58.49,29.14 59.61,29.59 C 60.72,30.04 61.82,30.59 62.86,31.22 C 63.90,31.85 64.91,32.57 65.84,33.37 C 66.77,34.16 67.66,35.05 68.46,35.99 C 69.26,36.93 70.00,37.96 70.64,39.02 C 71.29,40.09 71.86,41.23 72.32,42.40 C 72.79,43.57 73.18,44.79 73.45,46.03 C 73.73,47.27 73.91,48.55 73.99,49.83 C 74.07,51.11 74.04,52.42 73.91,53.70 C 73.78,54.99 73.32,56.90 73.21,57.54" fill="none" stroke="#F2EDE4" stroke-width="2.5" stroke-linecap="round" stroke-linejoin="round"/>
</svg>