<svg xmlns="http://www.w3.org/2000/svg" xmlns:xlink="http://www.w3.org/1999/xlink" width="1344" zoomAndPan="magnify" viewBox="0 0 1008 1295.99994" height="1728" preserveAspectRatio="xMidYMid meet" version="1.0"><path fill="#503b34" d="M 127.273438 627.847656 C 127.273438 630.332031 127.910156 632.503906 129.183594 634.367188 C 130.457031 636.226562 132.121094 637.910156 134.179688 639.410156 C 136.238281 640.914062 138.410156 642.417969 140.695312 643.917969 C 143.179688 645.488281 145.546875 647.136719 147.800781 648.867188 C 150.054688 650.597656 151.917969 652.59375 153.386719 654.847656 C 154.855469 657.101562 155.59375 659.792969 155.59375 662.929688 C 155.59375 666.394531 154.660156 669.429688 152.800781 672.042969 C 150.9375 674.65625 148.421875 676.699219 145.253906 678.167969 C 142.085938 679.636719 138.476562 680.375 134.425781 680.375 C 132.464844 680.375 130.425781 680.175781 128.300781 679.785156 C 126.175781 679.394531 124.25 678.902344 122.519531 678.316406 C 120.789062 677.726562 119.53125 677.105469 118.746094 676.453125 C 118.484375 676.257812 118.257812 676.046875 118.058594 675.816406 C 117.863281 675.589844 117.765625 675.179688 117.765625 674.589844 L 117.472656 659.011719 C 117.40625 658.683594 117.554688 658.503906 117.914062 658.472656 C 118.273438 658.4375 118.484375 658.554688 118.550781 658.816406 C 119.53125 660.839844 120.609375 662.980469 121.785156 665.234375 C 122.960938 667.488281 124.28125 669.5625 125.753906 671.457031 C 127.222656 673.351562 128.871094 674.902344 130.703125 676.109375 C 132.53125 677.320312 134.621094 677.921875 136.972656 677.921875 C 138.476562 677.921875 139.914062 677.664062 141.285156 677.140625 C 142.65625 676.617188 143.785156 675.667969 144.664062 674.296875 C 145.546875 672.925781 145.988281 671.03125 145.988281 668.613281 C 145.988281 665.542969 145.300781 662.914062 143.929688 660.726562 C 142.558594 658.535156 140.792969 656.609375 138.640625 654.945312 C 136.484375 653.277344 134.230469 651.695312 131.878906 650.191406 C 129.589844 648.6875 127.402344 647.136719 125.3125 645.535156 C 123.222656 643.9375 121.523438 642.105469 120.214844 640.050781 C 118.910156 637.992188 118.257812 635.523438 118.257812 632.652344 C 118.257812 628.992188 119.285156 626.003906 121.34375 623.683594 C 123.402344 621.363281 126.015625 619.648438 129.183594 618.539062 C 132.351562 617.429688 135.570312 616.875 138.835938 616.875 C 141.1875 616.875 143.539062 617.085938 145.890625 617.511719 C 148.242188 617.933594 150.105469 618.441406 151.476562 619.03125 C 152.128906 619.289062 152.539062 619.585938 152.699219 619.910156 C 152.863281 620.238281 152.945312 620.597656 152.945312 620.988281 L 152.945312 635.394531 C 152.945312 635.589844 152.800781 635.738281 152.503906 635.835938 C 152.210938 635.933594 152 635.882812 151.867188 635.6875 C 151.476562 634.902344 150.921875 633.613281 150.203125 631.816406 C 149.484375 630.019531 148.535156 628.144531 147.359375 626.183594 C 146.183594 624.222656 144.683594 622.539062 142.851562 621.136719 C 141.023438 619.730469 138.800781 619.03125 136.1875 619.03125 C 134.554688 619.03125 133.070312 619.355469 131.730469 620.007812 C 130.390625 620.664062 129.3125 621.625 128.496094 622.898438 C 127.679688 624.175781 127.273438 625.824219 127.273438 627.847656 Z M 187.757812 656.757812 L 189.230469 654.011719 L 217.453125 654.011719 L 218.136719 656.757812 Z M 241.265625 678.019531 C 241.589844 678.019531 241.753906 678.21875 241.753906 678.609375 C 241.753906 679 241.589844 679.199219 241.265625 679.199219 C 239.304688 679.199219 237.261719 679.132812 235.140625 679 C 233.015625 678.871094 230.976562 678.804688 229.015625 678.804688 C 226.792969 678.804688 224.867188 678.871094 223.234375 679 C 221.601562 679.132812 219.769531 679.199219 217.746094 679.199219 C 217.484375 679.199219 217.355469 679 217.355469 678.609375 C 217.355469 678.21875 217.484375 678.019531 217.746094 678.019531 C 220.425781 678.019531 221.976562 677.484375 222.398438 676.40625 C 222.824219 675.328125 222.21875 673.1875 220.585938 669.984375 L 200.695312 630.691406 L 205.496094 622.261719 L 185.996094 665.28125 C 184.230469 669.203125 184.199219 672.304688 185.898438 674.589844 C 187.597656 676.878906 190.273438 678.019531 193.933594 678.019531 C 194.257812 678.019531 194.421875 678.21875 194.421875 678.609375 C 194.421875 679 194.257812 679.199219 193.933594 679.199219 C 191.972656 679.199219 190.175781 679.132812 188.542969 679 C 186.910156 678.871094 184.851562 678.804688 182.371094 678.804688 C 179.820312 678.804688 177.78125 678.871094 176.246094 679 C 174.710938 679.132812 172.832031 679.199219 170.609375 679.199219 C 170.347656 679.199219 170.21875 679 170.21875 678.609375 C 170.21875 678.21875 170.347656 678.019531 170.609375 678.019531 C 172.375 678.019531 173.894531 677.644531 175.167969 676.894531 C 176.441406 676.144531 177.714844 674.769531 178.988281 672.777344 C 180.261719 670.785156 181.714844 667.960938 183.351562 664.300781 L 204.613281 617.558594 C 204.679688 617.363281 204.972656 617.25 205.496094 617.214844 C 206.019531 617.183594 206.3125 617.296875 206.378906 617.558594 L 230.875 665.773438 C 232.445312 668.84375 233.800781 671.277344 234.945312 673.074219 C 236.085938 674.871094 237.164062 676.144531 238.175781 676.894531 C 239.191406 677.644531 240.21875 678.019531 241.265625 678.019531 Z M 272.355469 625.988281 L 272.355469 670.867188 C 272.355469 672.46875 272.484375 673.667969 272.746094 674.46875 C 273.007812 675.269531 273.542969 675.800781 274.355469 676.0625 C 275.164062 676.324219 276.359375 676.453125 277.9375 676.453125 L 281.269531 676.453125 C 286.367188 676.453125 290.777344 675.082031 294.5 672.335938 C 298.222656 669.59375 300.707031 665.9375 301.949219 661.363281 C 302.011719 661.167969 302.210938 661.101562 302.535156 661.167969 C 302.863281 661.230469 303.027344 661.363281 303.027344 661.558594 C 302.828125 663.714844 302.632812 666.304688 302.4375 669.332031 C 302.242188 672.359375 302.144531 675.15625 302.144531 677.726562 C 302.144531 678.707031 301.640625 679.199219 300.636719 679.199219 L 254.421875 679.199219 C 254.289062 679.199219 254.226562 679 254.226562 678.609375 C 254.226562 678.21875 254.289062 678.019531 254.421875 678.019531 C 256.429688 678.019531 257.933594 677.859375 258.941406 677.53125 C 259.945312 677.203125 260.617188 676.550781 260.960938 675.570312 C 261.304688 674.589844 261.476562 673.15625 261.476562 671.261719 L 261.476562 625.890625 C 261.476562 623.996094 261.304688 622.574219 260.960938 621.625 C 260.617188 620.679688 259.945312 620.027344 258.941406 619.667969 C 257.933594 619.308594 256.429688 619.128906 254.421875 619.128906 C 254.289062 619.128906 254.226562 618.929688 254.226562 618.539062 C 254.226562 618.148438 254.289062 617.953125 254.421875 617.953125 C 255.988281 617.953125 257.859375 618 260.035156 618.097656 C 262.207031 618.195312 264.472656 618.246094 266.832031 618.246094 C 269.335938 618.246094 271.636719 618.195312 273.726562 618.097656 C 275.820312 618 277.679688 617.953125 279.3125 617.953125 C 279.507812 617.953125 279.605469 618.148438 279.605469 618.539062 C 279.605469 618.929688 279.507812 619.128906 279.3125 619.128906 C 277.332031 619.128906 275.84375 619.308594 274.855469 619.667969 C 273.863281 620.027344 273.199219 620.695312 272.863281 621.675781 C 272.523438 622.65625 272.355469 624.09375 272.355469 625.988281 Z M 336.957031 620.207031 C 332.972656 620.207031 329.589844 621.527344 326.816406 624.175781 C 324.039062 626.820312 321.832031 630.558594 320.199219 635.394531 C 320.136719 635.589844 319.9375 635.671875 319.613281 635.640625 C 319.285156 635.605469 319.121094 635.492188 319.121094 635.296875 C 319.253906 634.382812 319.382812 633.089844 319.515625 631.425781 C 319.644531 629.757812 319.792969 627.945312 319.957031 625.988281 C 320.117188 624.027344 320.25 622.132812 320.347656 620.304688 C 320.445312 618.472656 320.496094 616.972656 320.496094 615.796875 C 320.496094 615.46875 320.675781 615.304688 321.035156 615.304688 C 321.390625 615.304688 321.570312 615.46875 321.570312 615.796875 C 321.570312 616.449219 321.914062 616.921875 322.601562 617.214844 C 323.285156 617.511719 324.070312 617.707031 324.953125 617.804688 C 325.835938 617.902344 326.570312 617.953125 327.15625 617.953125 C 332.777344 618.148438 339.339844 618.246094 346.855469 618.246094 C 351.425781 618.246094 355.085938 618.195312 357.828125 618.097656 C 360.574219 618 363.21875 617.953125 365.765625 617.953125 C 368.117188 617.953125 369.898438 617.804688 371.109375 617.511719 C 372.316406 617.214844 373.085938 616.546875 373.410156 615.5 C 373.476562 615.242188 373.6875 615.109375 374.046875 615.109375 C 374.40625 615.109375 374.585938 615.242188 374.585938 615.5 C 374.457031 616.546875 374.339844 618 374.242188 619.863281 C 374.144531 621.722656 374.046875 623.683594 373.949219 625.742188 C 373.851562 627.800781 373.769531 629.695312 373.703125 631.425781 C 373.640625 633.15625 373.605469 634.445312 373.605469 635.296875 C 373.605469 635.492188 373.445312 635.589844 373.117188 635.589844 C 372.789062 635.589844 372.59375 635.492188 372.527344 635.296875 C 371.550781 630.136719 369.703125 626.328125 366.992188 623.878906 C 364.28125 621.429688 361 620.207031 357.144531 620.207031 C 355.835938 620.207031 354.839844 620.386719 354.15625 620.746094 C 353.46875 621.105469 353.011719 621.707031 352.78125 622.558594 C 352.554688 623.40625 352.441406 624.582031 352.441406 626.085938 L 352.441406 671.261719 C 352.441406 673.15625 352.636719 674.589844 353.027344 675.570312 C 353.421875 676.550781 354.1875 677.203125 355.332031 677.53125 C 356.472656 677.859375 358.222656 678.019531 360.574219 678.019531 C 360.769531 678.019531 360.867188 678.21875 360.867188 678.609375 C 360.867188 679 360.769531 679.199219 360.574219 679.199219 C 358.746094 679.199219 356.6875 679.164062 354.398438 679.097656 C 352.113281 679.035156 349.597656 679 346.855469 679 C 344.242188 679 341.792969 679.035156 339.503906 679.097656 C 337.21875 679.164062 335.128906 679.199219 333.234375 679.199219 C 333.039062 679.199219 332.9375 679 332.9375 678.609375 C 332.9375 678.21875 333.039062 678.019531 333.234375 678.019531 C 335.519531 678.019531 337.25 677.859375 338.425781 677.53125 C 339.601562 677.203125 340.402344 676.550781 340.828125 675.570312 C 341.253906 674.589844 341.464844 673.15625 341.464844 671.261719 L 341.464844 625.890625 C 341.464844 624.453125 341.351562 623.324219 341.121094 622.507812 C 340.894531 621.691406 340.453125 621.105469 339.800781 620.746094 C 339.144531 620.386719 338.199219 620.207031 336.957031 620.207031 Z M 443.527344 620.207031 C 439.542969 620.207031 436.160156 621.527344 433.386719 624.175781 C 430.609375 626.820312 428.402344 630.558594 426.769531 635.394531 C 426.707031 635.589844 426.507812 635.671875 426.183594 635.640625 C 425.855469 635.605469 425.691406 635.492188 425.691406 635.296875 C 425.824219 634.382812 425.953125 633.089844 426.085938 631.425781 C 426.214844 629.757812 426.363281 627.945312 426.527344 625.988281 C 426.6875 624.027344 426.820312 622.132812 426.917969 620.304688 C 427.015625 618.472656 427.066406 616.972656 427.066406 615.796875 C 427.066406 615.46875 427.246094 615.304688 427.605469 615.304688 C 427.964844 615.304688 428.144531 615.46875 428.144531 615.796875 C 428.144531 616.449219 428.484375 616.921875 429.171875 617.214844 C 429.859375 617.511719 430.640625 617.707031 431.523438 617.804688 C 432.40625 617.902344 433.140625 617.953125 433.726562 617.953125 C 439.347656 618.148438 445.914062 618.246094 453.425781 618.246094 C 458 618.246094 461.65625 618.195312 464.398438 618.097656 C 467.144531 618 469.789062 617.953125 472.335938 617.953125 C 474.691406 617.953125 476.46875 617.804688 477.679688 617.511719 C 478.886719 617.214844 479.65625 616.546875 479.980469 615.5 C 480.046875 615.242188 480.257812 615.109375 480.617188 615.109375 C 480.976562 615.109375 481.15625 615.242188 481.15625 615.5 C 481.027344 616.546875 480.914062 618 480.8125 619.863281 C 480.714844 621.722656 480.617188 623.683594 480.519531 625.742188 C 480.421875 627.800781 480.339844 629.695312 480.273438 631.425781 C 480.210938 633.15625 480.175781 634.445312 480.175781 635.296875 C 480.175781 635.492188 480.015625 635.589844 479.6875 635.589844 C 479.359375 635.589844 479.164062 635.492188 479.097656 635.296875 C 478.121094 630.136719 476.273438 626.328125 473.5625 623.878906 C 470.851562 621.429688 467.570312 620.207031 463.714844 620.207031 C 462.40625 620.207031 461.410156 620.386719 460.726562 620.746094 C 460.039062 621.105469 459.582031 621.707031 459.355469 622.558594 C 459.125 623.40625 459.011719 624.582031 459.011719 626.085938 L 459.011719 671.261719 C 459.011719 673.15625 459.207031 674.589844 459.597656 675.570312 C 459.992188 676.550781 460.757812 677.203125 461.902344 677.53125 C 463.042969 677.859375 464.792969 678.019531 467.144531 678.019531 C 467.339844 678.019531 467.4375 678.21875 467.4375 678.609375 C 467.4375 679 467.339844 679.199219 467.144531 679.199219 C 465.316406 679.199219 463.257812 679.164062 460.96875 679.097656 C 458.683594 679.035156 456.167969 679 453.425781 679 C 450.8125 679 448.363281 679.035156 446.074219 679.097656 C 443.789062 679.164062 441.699219 679.199219 439.804688 679.199219 C 439.609375 679.199219 439.511719 679 439.511719 678.609375 C 439.511719 678.21875 439.609375 678.019531 439.804688 678.019531 C 442.089844 678.019531 443.820312 677.859375 444.996094 677.53125 C 446.171875 677.203125 446.972656 676.550781 447.398438 675.570312 C 447.824219 674.589844 448.035156 673.15625 448.035156 671.261719 L 448.035156 625.890625 C 448.035156 624.453125 447.921875 623.324219 447.691406 622.507812 C 447.464844 621.691406 447.023438 621.105469 446.371094 620.746094 C 445.714844 620.386719 444.769531 620.207031 443.527344 620.207031 Z M 530.964844 680.375 C 526.261719 680.375 521.996094 679.539062 518.175781 677.875 C 514.355469 676.207031 511.085938 673.90625 508.375 670.964844 C 505.664062 668.027344 503.574219 664.644531 502.105469 660.824219 C 500.632812 657 499.898438 652.933594 499.898438 648.625 C 499.898438 643.332031 500.929688 638.695312 502.988281 634.707031 C 505.042969 630.722656 507.773438 627.40625 511.167969 624.761719 C 514.566406 622.117188 518.289062 620.140625 522.339844 618.832031 C 526.390625 617.527344 530.410156 616.875 534.394531 616.875 C 539.226562 616.875 543.554688 617.738281 547.378906 619.46875 C 551.199219 621.203125 554.449219 623.535156 557.128906 626.476562 C 559.804688 629.417969 561.847656 632.75 563.253906 636.472656 C 564.65625 640.195312 565.359375 644.019531 565.359375 647.9375 C 565.359375 652.511719 564.445312 656.757812 562.617188 660.675781 C 560.785156 664.597656 558.289062 668.027344 555.117188 670.964844 C 551.949219 673.90625 548.292969 676.207031 544.144531 677.875 C 539.996094 679.539062 535.601562 680.375 530.964844 680.375 Z M 534.199219 677.921875 C 537.855469 677.921875 541.121094 676.878906 543.996094 674.789062 C 546.871094 672.695312 549.140625 669.625 550.808594 665.578125 C 552.472656 661.527344 553.304688 656.59375 553.304688 650.777344 C 553.304688 644.769531 552.390625 639.410156 550.5625 634.707031 C 548.734375 630.003906 546.121094 626.296875 542.722656 623.585938 C 539.324219 620.875 535.242188 619.519531 530.472656 619.519531 C 524.527344 619.519531 519.957031 621.773438 516.753906 626.28125 C 513.554688 630.789062 511.953125 637.027344 511.953125 644.996094 C 511.953125 649.765625 512.507812 654.160156 513.617188 658.179688 C 514.730469 662.195312 516.28125 665.691406 518.273438 668.664062 C 520.265625 671.636719 522.617188 673.921875 525.328125 675.523438 C 528.039062 677.125 530.996094 677.921875 534.199219 677.921875 Z M 630.773438 627.847656 C 630.773438 630.332031 631.410156 632.503906 632.683594 634.367188 C 633.957031 636.226562 635.625 637.910156 637.679688 639.410156 C 639.738281 640.914062 641.910156 642.417969 644.199219 643.917969 C 646.679688 645.488281 649.046875 647.136719 651.300781 648.867188 C 653.554688 650.597656 655.417969 652.59375 656.886719 654.847656 C 658.359375 657.101562 659.09375 659.792969 659.09375 662.929688 C 659.09375 666.394531 658.160156 669.429688 656.300781 672.042969 C 654.4375 674.65625 651.921875 676.699219 648.753906 678.167969 C 645.585938 679.636719 641.976562 680.375 637.925781 680.375 C 635.964844 680.375 633.925781 680.175781 631.800781 679.785156 C 629.679688 679.394531 627.75 678.902344 626.019531 678.316406 C 624.289062 677.726562 623.03125 677.105469 622.246094 676.453125 C 621.984375 676.257812 621.757812 676.046875 621.5625 675.816406 C 621.367188 675.589844 621.265625 675.179688 621.265625 674.589844 L 620.972656 659.011719 C 620.90625 658.683594 621.054688 658.503906 621.414062 658.472656 C 621.773438 658.4375 621.984375 658.554688 622.050781 658.816406 C 623.03125 660.839844 624.109375 662.980469 625.285156 665.234375 C 626.460938 667.488281 627.785156 669.5625 629.253906 671.457031 C 630.722656 673.351562 632.375 674.902344 634.203125 676.109375 C 636.03125 677.320312 638.121094 677.921875 640.472656 677.921875 C 641.976562 677.921875 643.414062 677.664062 644.785156 677.140625 C 646.15625 676.617188 647.285156 675.667969 648.167969 674.296875 C 649.046875 672.925781 649.488281 671.03125 649.488281 668.613281 C 649.488281 665.542969 648.804688 662.914062 647.429688 660.726562 C 646.058594 658.535156 644.296875 656.609375 642.140625 654.945312 C 639.984375 653.277344 637.730469 651.695312 635.378906 650.191406 C 633.089844 648.6875 630.902344 647.136719 628.8125 645.535156 C 626.722656 643.9375 625.023438 642.105469 623.71875 640.050781 C 622.410156 637.992188 621.757812 635.523438 621.757812 632.652344 C 621.757812 628.992188 622.785156 626.003906 624.84375 623.683594 C 626.902344 621.363281 629.515625 619.648438 632.683594 618.539062 C 635.851562 617.429688 639.070312 616.875 642.335938 616.875 C 644.6875 616.875 647.039062 617.085938 649.390625 617.511719 C 651.742188 617.933594 653.605469 618.441406 654.976562 619.03125 C 655.628906 619.289062 656.039062 619.585938 656.203125 619.910156 C 656.367188 620.238281 656.445312 620.597656 656.445312 620.988281 L 656.445312 635.394531 C 656.445312 635.589844 656.300781 635.738281 656.007812 635.835938 C 655.710938 635.933594 655.5 635.882812 655.367188 635.6875 C 654.976562 634.902344 654.421875 633.613281 653.703125 631.816406 C 652.984375 630.019531 652.039062 628.144531 650.859375 626.183594 C 649.683594 624.222656 648.183594 622.539062 646.355469 621.136719 C 644.523438 619.730469 642.304688 619.03125 639.691406 619.03125 C 638.058594 619.03125 636.570312 619.355469 635.230469 620.007812 C 633.890625 620.664062 632.8125 621.625 631.996094 622.898438 C 631.179688 624.175781 630.773438 625.824219 630.773438 627.847656 Z M 710.371094 680.375 C 705.664062 680.375 701.402344 679.539062 697.582031 677.875 C 693.757812 676.207031 690.492188 673.90625 687.78125 670.964844 C 685.070312 668.027344 682.980469 664.644531 681.511719 660.824219 C 680.039062 657 679.304688 652.933594 679.304688 648.625 C 679.304688 643.332031 680.335938 638.695312 682.390625 634.707031 C 684.449219 630.722656 687.175781 627.40625 690.574219 624.761719 C 693.972656 622.117188 697.695312 620.140625 701.746094 618.832031 C 705.796875 617.527344 709.8125 616.875 713.800781 616.875 C 718.632812 616.875 722.960938 617.738281 726.78125 619.46875 C 730.605469 621.203125 733.855469 623.535156 736.535156 626.476562 C 739.210938 629.417969 741.253906 632.75 742.65625 636.472656 C 744.0625 640.195312 744.765625 644.019531 744.765625 647.9375 C 744.765625 652.511719 743.851562 656.757812 742.019531 660.675781 C 740.191406 664.597656 737.691406 668.027344 734.523438 670.964844 C 731.355469 673.90625 727.699219 676.207031 723.550781 677.875 C 719.402344 679.539062 715.007812 680.375 710.371094 680.375 Z M 713.601562 677.921875 C 717.261719 677.921875 720.527344 676.878906 723.402344 674.789062 C 726.277344 672.695312 728.546875 669.625 730.210938 665.578125 C 731.878906 661.527344 732.710938 656.59375 732.710938 650.777344 C 732.710938 644.769531 731.796875 639.410156 729.96875 634.707031 C 728.136719 630.003906 725.527344 626.296875 722.128906 623.585938 C 718.730469 620.875 714.648438 619.519531 709.878906 619.519531 C 703.933594 619.519531 699.359375 621.773438 696.160156 626.28125 C 692.957031 630.789062 691.359375 637.027344 691.359375 644.996094 C 691.359375 649.765625 691.914062 654.160156 693.023438 658.179688 C 694.136719 662.195312 695.6875 665.691406 697.679688 668.664062 C 699.671875 671.636719 702.023438 673.921875 704.734375 675.523438 C 707.445312 677.125 710.402344 677.921875 713.601562 677.921875 Z M 815.835938 630.496094 C 815.835938 627.03125 815.035156 624.273438 813.433594 622.214844 C 811.835938 620.15625 809.597656 619.128906 806.722656 619.128906 C 806.59375 619.128906 806.527344 618.929688 806.527344 618.539062 C 806.527344 618.148438 806.59375 617.953125 806.722656 617.953125 C 808.355469 617.953125 810.039062 618 811.769531 618.097656 C 813.5 618.195312 815.378906 618.246094 817.402344 618.246094 C 819.167969 618.246094 820.898438 618.195312 822.597656 618.097656 C 824.296875 618 825.863281 617.953125 827.300781 617.953125 C 827.433594 617.953125 827.496094 618.148438 827.496094 618.539062 C 827.496094 618.929688 827.433594 619.128906 827.300781 619.128906 C 824.6875 619.128906 822.679688 620.15625 821.273438 622.214844 C 819.871094 624.273438 819.167969 627.03125 819.167969 630.496094 L 819.167969 657.738281 C 819.167969 662.375 818.15625 666.410156 816.128906 669.839844 C 814.105469 673.269531 811.261719 675.914062 807.605469 677.777344 C 803.945312 679.636719 799.667969 680.570312 794.765625 680.570312 C 790 680.570312 785.734375 679.65625 781.980469 677.824219 C 778.222656 675.996094 775.28125 673.367188 773.160156 669.9375 C 771.035156 666.507812 769.976562 662.375 769.976562 657.539062 L 769.976562 625.890625 C 769.976562 623.996094 769.8125 622.574219 769.484375 621.625 C 769.160156 620.679688 768.488281 620.027344 767.476562 619.667969 C 766.464844 619.308594 764.976562 619.128906 763.015625 619.128906 C 762.820312 619.128906 762.722656 618.929688 762.722656 618.539062 C 762.722656 618.148438 762.820312 617.953125 763.015625 617.953125 C 764.714844 617.953125 766.609375 618 768.699219 618.097656 C 770.792969 618.195312 773.011719 618.246094 775.363281 618.246094 C 777.847656 618.246094 780.132812 618.195312 782.222656 618.097656 C 784.316406 618 786.175781 617.953125 787.808594 617.953125 C 788.003906 617.953125 788.105469 618.148438 788.105469 618.539062 C 788.105469 618.929688 788.003906 619.128906 787.808594 619.128906 C 785.851562 619.128906 784.378906 619.324219 783.398438 619.714844 C 782.421875 620.105469 781.75 620.792969 781.390625 621.773438 C 781.03125 622.753906 780.851562 624.191406 780.851562 626.085938 L 780.851562 654.109375 C 780.851562 662.144531 782.453125 667.960938 785.652344 671.554688 C 788.855469 675.148438 793.132812 676.945312 798.492188 676.945312 C 803.914062 676.945312 808.160156 675.292969 811.230469 671.996094 C 814.300781 668.695312 815.835938 663.976562 815.835938 657.835938 Z M 859.957031 625.988281 L 859.957031 670.867188 C 859.957031 672.46875 860.089844 673.667969 860.351562 674.46875 C 860.613281 675.269531 861.148438 675.800781 861.960938 676.0625 C 862.769531 676.324219 863.964844 676.453125 865.542969 676.453125 L 868.875 676.453125 C 873.972656 676.453125 878.382812 675.082031 882.105469 672.335938 C 885.828125 669.59375 888.3125 665.9375 889.554688 661.363281 C 889.617188 661.167969 889.8125 661.101562 890.140625 661.167969 C 890.46875 661.230469 890.628906 661.363281 890.628906 661.558594 C 890.433594 663.714844 890.238281 666.304688 890.042969 669.332031 C 889.847656 672.359375 889.75 675.15625 889.75 677.726562 C 889.75 678.707031 889.246094 679.199219 888.242188 679.199219 L 842.027344 679.199219 C 841.894531 679.199219 841.828125 679 841.828125 678.609375 C 841.828125 678.21875 841.894531 678.019531 842.027344 678.019531 C 844.035156 678.019531 845.539062 677.859375 846.542969 677.53125 C 847.550781 677.203125 848.222656 676.550781 848.566406 675.570312 C 848.910156 674.589844 849.082031 673.15625 849.082031 671.261719 L 849.082031 625.890625 C 849.082031 623.996094 848.910156 622.574219 848.566406 621.625 C 848.222656 620.679688 847.550781 620.027344 846.542969 619.667969 C 845.539062 619.308594 844.035156 619.128906 842.027344 619.128906 C 841.894531 619.128906 841.828125 618.929688 841.828125 618.539062 C 841.828125 618.148438 841.894531 617.953125 842.027344 617.953125 C 843.59375 617.953125 845.464844 618 847.636719 618.097656 C 849.8125 618.195312 852.078125 618.246094 854.4375 618.246094 C 856.941406 618.246094 859.242188 618.195312 861.332031 618.097656 C 863.425781 618 865.285156 617.953125 866.917969 617.953125 C 867.113281 617.953125 867.210938 618.148438 867.210938 618.539062 C 867.210938 618.929688 867.113281 619.128906 866.917969 619.128906 C 864.9375 619.128906 863.449219 619.308594 862.460938 619.667969 C 861.46875 620.027344 860.804688 620.695312 860.46875 621.675781 C 860.128906 622.65625 859.957031 624.09375 859.957031 625.988281 Z M 859.957031 625.988281 " fill-opacity="1" fill-rule="nonzero"/></svg>