<svg xmlns="http://www.w3.org/2000/svg" viewBox="-4.6 -18.4 161.9 24.7" width="324" height="49">
  <path d="M3.306 -9.956Q3.306 -9.234 3.6765 -8.692499999999999Q4.047 -8.151 4.6455 -7.714Q5.244 -7.277 5.909 -6.84Q6.631 -6.3839999999999995 7.2865 -5.8805Q7.942 -5.377 8.3695 -4.7215Q8.797 -4.066 8.797 -3.154Q8.797 -2.147 8.2555 -1.387Q7.7139999999999995 -0.627 6.7924999999999995 -0.1995Q5.8709999999999996 0.22799999999999998 4.693 0.22799999999999998Q4.123 0.22799999999999998 3.5055 0.11399999999999999Q2.888 0.0 2.3845 -0.17099999999999999Q1.881 -0.34199999999999997 1.653 -0.532Q1.577 -0.589 1.52 -0.6555Q1.4629999999999999 -0.722 1.4629999999999999 -0.893L1.406 -3.9139999999999997Q1.387 -4.009 1.4914999999999998 -4.0184999999999995Q1.5959999999999999 -4.028 1.615 -3.952Q1.9 -3.363 2.242 -2.7075Q2.584 -2.052 3.0115 -1.501Q3.439 -0.95 3.971 -0.5985Q4.503 -0.247 5.187 -0.247Q5.624 -0.247 6.023 -0.39899999999999997Q6.422 -0.5509999999999999 6.6785 -0.95Q6.935 -1.349 6.935 -2.052Q6.935 -2.945 6.536 -3.5815Q6.137 -4.218 5.51 -4.702500000000001Q4.883 -5.187 4.199 -5.624Q3.534 -6.061 2.926 -6.5265Q2.318 -6.992 1.9380000000000002 -7.5905000000000005Q1.558 -8.189 1.558 -9.025Q1.558 -10.089 2.1565 -10.7635Q2.755 -11.437999999999999 3.6765 -11.761Q4.598 -12.084 5.548 -12.084Q6.232 -12.084 6.916 -11.9605Q7.6 -11.837 7.999 -11.666Q8.189 -11.59 8.2365 -11.495000000000001Q8.283999999999999 -11.4 8.283999999999999 -11.286V-8.493Q8.283999999999999 -8.436 8.1985 -8.407499999999999Q8.113 -8.379 8.075 -8.436Q7.960999999999999 -8.664 7.752 -9.186499999999999Q7.543 -9.709 7.2010000000000005 -10.279Q6.859 -10.849 6.327 -11.2575Q5.795 -11.666 5.035 -11.666Q4.56 -11.666 4.1705 -11.475999999999999Q3.7809999999999997 -11.286 3.5435 -10.9155Q3.306 -10.545 3.306 -9.956ZM15.034 -4.351 15.318999999999999 -4.883H20.791L20.924 -4.351ZM25.408 -0.22799999999999998Q25.503 -0.22799999999999998 25.503 -0.11399999999999999Q25.503 0.0 25.408 0.0Q24.838 0.0 24.2205 -0.038Q23.603 -0.076 23.033 -0.076Q22.387 -0.076 21.912 -0.038Q21.436999999999998 0.0 20.848 0.0Q20.772 0.0 20.772 -0.11399999999999999Q20.772 -0.22799999999999998 20.848 -0.22799999999999998Q21.627000000000002 -0.22799999999999998 21.750500000000002 -0.5415Q21.874000000000002 -0.855 21.399 -1.786L17.542 -9.405L18.473 -11.039L14.692 -2.698Q14.179 -1.558 14.673 -0.893Q15.167 -0.22799999999999998 16.231 -0.22799999999999998Q16.326 -0.22799999999999998 16.326 -0.11399999999999999Q16.326 0.0 16.231 0.0Q15.661 0.0 15.186 -0.038Q14.711 -0.076 13.989 -0.076Q13.248 -0.076 12.8015 -0.038Q12.355 0.0 11.709 0.0Q11.633000000000001 0.0 11.633000000000001 -0.11399999999999999Q11.633000000000001 -0.22799999999999998 11.709 -0.22799999999999998Q12.222 -0.22799999999999998 12.592500000000001 -0.4465Q12.963000000000001 -0.665 13.3335 -1.2445Q13.704 -1.8239999999999998 14.179 -2.888L18.302 -11.951Q18.320999999999998 -12.008 18.473 -12.017499999999998Q18.625 -12.027 18.644 -11.951L23.394 -2.6029999999999998Q23.85 -1.71 24.1825 -1.1875Q24.515 -0.665 24.8095 -0.4465Q25.104 -0.22799999999999998 25.408 -0.22799999999999998ZM31.436 -10.317V-1.615Q31.436 -1.1495 31.512 -0.91675Q31.588 -0.6839999999999999 31.823938356164383 -0.608Q32.059876712328766 -0.532 32.519 -0.532H33.165Q34.647 -0.532 35.730000000000004 -1.33Q36.813 -2.128 37.174 -3.4579999999999997Q37.193 -3.515 37.288 -3.496Q37.382999999999996 -3.477 37.382999999999996 -3.42Q37.326 -2.793 37.269000000000005 -1.9127884615384616Q37.212 -1.032576923076923 37.212 -0.285Q37.212 0.0 36.919799999999995 0.0H27.959Q27.921 0.0 27.921 -0.11399999999999999Q27.921 -0.22799999999999998 27.959 -0.22799999999999998Q28.54308988764045 -0.22799999999999998 28.83513483146067 -0.32299999999999995Q29.127179775280897 -0.418 29.227089887640446 -0.703Q29.326999999999998 -0.988 29.326999999999998 -1.539V-10.336Q29.326999999999998 -10.887 29.227089887640446 -11.1625Q29.127179775280897 -11.437999999999999 28.83513483146067 -11.5425Q28.54308988764045 -11.647 27.959 -11.647Q27.921 -11.647 27.921 -11.761Q27.921 -11.875 27.959 -11.875Q28.415 -11.875 29.047244 -11.846499999999999Q29.679488 -11.818 30.365312 -11.818Q31.094 -11.818 31.70234756097561 -11.846499999999999Q32.31069512195122 -11.875 32.785 -11.875Q32.842 -11.875 32.842 -11.761Q32.842 -11.647 32.785 -11.647Q32.20902247191011 -11.647 31.921033707865167 -11.5425Q31.633044943820224 -11.437999999999999 31.534522471910112 -11.152999999999999Q31.436 -10.868 31.436 -10.317ZM43.962 -11.437999999999999Q42.803 -11.437999999999999 41.9955 -10.668499999999998Q41.188 -9.899 40.713 -8.493Q40.694 -8.436 40.599000000000004 -8.4455Q40.504 -8.455 40.504 -8.512Q40.542 -8.778 40.58 -9.2625Q40.618 -9.747 40.6655 -10.317Q40.713 -10.887 40.7415 -11.419Q40.77 -11.951 40.77 -12.293Q40.77 -12.388 40.8745 -12.388Q40.979 -12.388 40.979 -12.293Q40.979 -12.103 41.1785 -12.0175Q41.378 -11.932 41.6345 -11.903500000000001Q41.891 -11.875 42.062 -11.875Q43.696 -11.818 45.881 -11.818Q47.211 -11.818 48.009 -11.846499999999999Q48.807 -11.875 49.548 -11.875Q50.232 -11.875 50.5835 -11.9605Q50.935 -12.046 51.03 -12.35Q51.049 -12.426 51.153499999999994 -12.426Q51.257999999999996 -12.426 51.257999999999996 -12.35Q51.22 -12.046 51.1915 -11.5045Q51.163 -10.963 51.1345 -10.3645Q51.106 -9.766 51.087 -9.2625Q51.068 -8.759 51.068 -8.512Q51.068 -8.455 50.973 -8.455Q50.878 -8.455 50.859 -8.512Q50.574 -10.013 49.7855 -10.7255Q48.997 -11.437999999999999 47.876 -11.437999999999999Q47.496 -11.437999999999999 47.2965 -11.333499999999999Q47.097 -11.229 47.0305 -10.982Q46.964 -10.735 46.964 -10.298V-1.539Q46.964 -0.988 47.078 -0.703Q47.192 -0.418 47.5245 -0.32299999999999995Q47.857 -0.22799999999999998 48.541 -0.22799999999999998Q48.598 -0.22799999999999998 48.598 -0.11399999999999999Q48.598 0.0 48.541 0.0Q48.009 0.0 47.344 -0.019Q46.679 -0.038 45.881 -0.038Q45.121 -0.038 44.456 -0.019Q43.791 0.0 43.24 0.0Q43.183 0.0 43.183 -0.11399999999999999Q43.183 -0.22799999999999998 43.24 -0.22799999999999998Q43.905 -0.22799999999999998 44.247 -0.32299999999999995Q44.589 -0.418 44.7125 -0.703Q44.836 -0.988 44.836 -1.539V-10.336Q44.836 -10.754 44.7695 -10.991499999999998Q44.703 -11.229 44.513000000000005 -11.333499999999999Q44.323 -11.437999999999999 43.962 -11.437999999999999ZM64.625 -11.437999999999999Q63.465999999999994 -11.437999999999999 62.6585 -10.668499999999998Q61.851 -9.899 61.376 -8.493Q61.357 -8.436 61.262 -8.4455Q61.166999999999994 -8.455 61.166999999999994 -8.512Q61.205 -8.778 61.242999999999995 -9.2625Q61.281 -9.747 61.3285 -10.317Q61.376 -10.887 61.4045 -11.419Q61.433 -11.951 61.433 -12.293Q61.433 -12.388 61.537499999999994 -12.388Q61.641999999999996 -12.388 61.641999999999996 -12.293Q61.641999999999996 -12.103 61.841499999999996 -12.0175Q62.041 -11.932 62.2975 -11.903500000000001Q62.553999999999995 -11.875 62.724999999999994 -11.875Q64.359 -11.818 66.544 -11.818Q67.874 -11.818 68.672 -11.846499999999999Q69.47 -11.875 70.211 -11.875Q70.895 -11.875 71.2465 -11.9605Q71.598 -12.046 71.693 -12.35Q71.71199999999999 -12.426 71.81649999999999 -12.426Q71.92099999999999 -12.426 71.92099999999999 -12.35Q71.883 -12.046 71.8545 -11.5045Q71.826 -10.963 71.79749999999999 -10.3645Q71.76899999999999 -9.766 71.75 -9.2625Q71.731 -8.759 71.731 -8.512Q71.731 -8.455 71.636 -8.455Q71.541 -8.455 71.52199999999999 -8.512Q71.237 -10.013 70.4485 -10.7255Q69.66 -11.437999999999999 68.539 -11.437999999999999Q68.15899999999999 -11.437999999999999 67.95949999999999 -11.333499999999999Q67.75999999999999 -11.229 67.6935 -10.982Q67.627 -10.735 67.627 -10.298V-1.539Q67.627 -0.988 67.74099999999999 -0.703Q67.85499999999999 -0.418 68.1875 -0.32299999999999995Q68.52 -0.22799999999999998 69.204 -0.22799999999999998Q69.261 -0.22799999999999998 69.261 -0.11399999999999999Q69.261 0.0 69.204 0.0Q68.672 0.0 68.007 -0.019Q67.342 -0.038 66.544 -0.038Q65.78399999999999 -0.038 65.119 -0.019Q64.454 0.0 63.903 0.0Q63.846 0.0 63.846 -0.11399999999999999Q63.846 -0.22799999999999998 63.903 -0.22799999999999998Q64.568 -0.22799999999999998 64.91 -0.32299999999999995Q65.252 -0.418 65.37549999999999 -0.703Q65.499 -0.988 65.499 -1.539V-10.336Q65.499 -10.754 65.4325 -10.991499999999998Q65.366 -11.229 65.17599999999999 -11.333499999999999Q64.98599999999999 -11.437999999999999 64.625 -11.437999999999999ZM81.57799999999999 0.22799999999999998Q80.21 0.22799999999999998 79.0985 -0.2565Q77.987 -0.741 77.1985 -1.596Q76.41 -2.451 75.98249999999999 -3.5625Q75.55499999999999 -4.6739999999999995 75.55499999999999 -5.928Q75.55499999999999 -7.467 76.1535 -8.626Q76.752 -9.785 77.74 -10.5545Q78.728 -11.324 79.90599999999999 -11.704Q81.08399999999999 -12.084 82.243 -12.084Q83.649 -12.084 84.76050000000001 -11.5805Q85.872 -11.077 86.651 -10.222Q87.42999999999999 -9.366999999999999 87.8385 -8.283999999999999Q88.247 -7.201 88.247 -6.061Q88.247 -4.731 87.715 -3.591Q87.18299999999999 -2.451 86.26149999999998 -1.596Q85.33999999999999 -0.741 84.1335 -0.2565Q82.92699999999999 0.22799999999999998 81.57799999999999 0.22799999999999998ZM82.205 -0.247Q83.26899999999999 -0.247 84.10499999999999 -0.855Q84.941 -1.4629999999999999 85.4255 -2.641Q85.91 -3.819 85.91 -5.51Q85.91 -7.258 85.37799999999999 -8.626Q84.84599999999999 -9.994 83.85799999999999 -10.782499999999999Q82.86999999999999 -11.571 81.48299999999999 -11.571Q79.75399999999999 -11.571 78.823 -10.26Q77.892 -8.949 77.892 -6.631Q77.892 -5.244 78.215 -4.0755Q78.538 -2.907 79.11749999999999 -2.0425Q79.69699999999999 -1.178 80.4855 -0.7124999999999999Q81.274 -0.247 82.205 -0.247ZM100.92999999999999 -9.956Q100.92999999999999 -9.234 101.3005 -8.692499999999999Q101.67099999999999 -8.151 102.2695 -7.714Q102.868 -7.277 103.533 -6.84Q104.255 -6.3839999999999995 104.9105 -5.8805Q105.566 -5.377 105.9935 -4.7215Q106.42099999999999 -4.066 106.42099999999999 -3.154Q106.42099999999999 -2.147 105.8795 -1.387Q105.338 -0.627 104.41649999999998 -0.1995Q103.49499999999999 0.22799999999999998 102.317 0.22799999999999998Q101.747 0.22799999999999998 101.12950000000001 0.11399999999999999Q100.512 0.0 100.0085 -0.17099999999999999Q99.505 -0.34199999999999997 99.277 -0.532Q99.201 -0.589 99.14399999999999 -0.6555Q99.08699999999999 -0.722 99.08699999999999 -0.893L99.03 -3.9139999999999997Q99.011 -4.009 99.1155 -4.0184999999999995Q99.22 -4.028 99.23899999999999 -3.952Q99.524 -3.363 99.866 -2.7075Q100.208 -2.052 100.6355 -1.501Q101.06299999999999 -0.95 101.595 -0.5985Q102.127 -0.247 102.81099999999999 -0.247Q103.24799999999999 -0.247 103.64699999999999 -0.39899999999999997Q104.04599999999999 -0.5509999999999999 104.3025 -0.95Q104.559 -1.349 104.559 -2.052Q104.559 -2.945 104.16 -3.5815Q103.761 -4.218 103.13399999999999 -4.702500000000001Q102.50699999999999 -5.187 101.823 -5.624Q101.158 -6.061 100.55 -6.5265Q99.942 -6.992 99.562 -7.5905000000000005Q99.182 -8.189 99.182 -9.025Q99.182 -10.089 99.78049999999999 -10.7635Q100.37899999999999 -11.437999999999999 101.3005 -11.761Q102.222 -12.084 103.172 -12.084Q103.856 -12.084 104.53999999999999 -11.9605Q105.22399999999999 -11.837 105.62299999999999 -11.666Q105.81299999999999 -11.59 105.86049999999999 -11.495000000000001Q105.90799999999999 -11.4 105.90799999999999 -11.286V-8.493Q105.90799999999999 -8.436 105.82249999999999 -8.407499999999999Q105.737 -8.379 105.699 -8.436Q105.585 -8.664 105.376 -9.186499999999999Q105.167 -9.709 104.82499999999999 -10.279Q104.48299999999999 -10.849 103.951 -11.2575Q103.419 -11.666 102.65899999999999 -11.666Q102.184 -11.666 101.7945 -11.475999999999999Q101.405 -11.286 101.16749999999999 -10.9155Q100.92999999999999 -10.545 100.92999999999999 -9.956ZM116.36299999999999 0.22799999999999998Q114.99499999999999 0.22799999999999998 113.8835 -0.2565Q112.77199999999999 -0.741 111.98349999999999 -1.596Q111.195 -2.451 110.76749999999998 -3.5625Q110.33999999999999 -4.6739999999999995 110.33999999999999 -5.928Q110.33999999999999 -7.467 110.93849999999999 -8.626Q111.53699999999999 -9.785 112.52499999999999 -10.5545Q113.51299999999999 -11.324 114.69099999999999 -11.704Q115.86899999999999 -12.084 117.02799999999999 -12.084Q118.434 -12.084 119.5455 -11.5805Q120.657 -11.077 121.43599999999999 -10.222Q122.21499999999999 -9.366999999999999 122.62349999999999 -8.283999999999999Q123.032 -7.201 123.032 -6.061Q123.032 -4.731 122.5 -3.591Q121.96799999999999 -2.451 121.04649999999998 -1.596Q120.12499999999999 -0.741 118.9185 -0.2565Q117.71199999999999 0.22799999999999998 116.36299999999999 0.22799999999999998ZM116.99 -0.247Q118.05399999999999 -0.247 118.88999999999999 -0.855Q119.726 -1.4629999999999999 120.2105 -2.641Q120.695 -3.819 120.695 -5.51Q120.695 -7.258 120.16299999999998 -8.626Q119.63099999999999 -9.994 118.64299999999999 -10.782499999999999Q117.65499999999999 -11.571 116.26799999999999 -11.571Q114.53899999999999 -11.571 113.60799999999999 -10.26Q112.67699999999999 -8.949 112.67699999999999 -6.631Q112.67699999999999 -5.244 113.0 -4.0755Q113.323 -2.907 113.90249999999999 -2.0425Q114.48199999999999 -1.178 115.2705 -0.7124999999999999Q116.059 -0.247 116.99 -0.247ZM136.81199999999998 -9.443Q136.81199999999998 -10.45 136.3465 -11.0485Q135.881 -11.647 135.045 -11.647Q135.007 -11.647 135.007 -11.761Q135.007 -11.875 135.045 -11.875Q135.51999999999998 -11.875 136.02349999999998 -11.846499999999999Q136.527 -11.818 137.11599999999999 -11.818Q137.629 -11.818 138.123 -11.846499999999999Q138.617 -11.875 139.035 -11.875Q139.07299999999998 -11.875 139.07299999999998 -11.761Q139.07299999999998 -11.647 139.035 -11.647Q138.275 -11.647 137.8665 -11.0485Q137.458 -10.45 137.458 -9.443V-4.161Q137.458 -2.812 136.869 -1.8144999999999998Q136.28 -0.817 135.216 -0.27549999999999997Q134.152 0.266 132.727 0.266Q131.34 0.266 130.2475 -0.26599999999999996Q129.155 -0.7979999999999999 128.5375 -1.7955Q127.91999999999999 -2.793 127.91999999999999 -4.199V-10.336Q127.91999999999999 -10.887 127.82499999999999 -11.1625Q127.72999999999999 -11.437999999999999 127.43549999999999 -11.5425Q127.14099999999999 -11.647 126.571 -11.647Q126.514 -11.647 126.514 -11.761Q126.514 -11.875 126.571 -11.875Q127.065 -11.875 127.673 -11.846499999999999Q128.281 -11.818 128.965 -11.818Q129.68699999999998 -11.818 130.295 -11.846499999999999Q130.903 -11.875 131.378 -11.875Q131.435 -11.875 131.435 -11.761Q131.435 -11.647 131.378 -11.647Q130.808 -11.647 130.523 -11.533000000000001Q130.238 -11.419 130.1335 -11.134Q130.029 -10.849 130.029 -10.298V-4.864Q130.029 -2.527 130.95999999999998 -1.482Q131.891 -0.437 133.44899999999998 -0.437Q135.02599999999998 -0.437 135.91899999999998 -1.3964999999999999Q136.81199999999998 -2.356 136.81199999999998 -4.1419999999999995ZM145.367 -10.317V-1.615Q145.367 -1.1495 145.44299999999998 -0.91675Q145.519 -0.6839999999999999 145.7549383561644 -0.608Q145.99087671232877 -0.532 146.45 -0.532H147.096Q148.578 -0.532 149.661 -1.33Q150.744 -2.128 151.105 -3.4579999999999997Q151.124 -3.515 151.219 -3.496Q151.314 -3.477 151.314 -3.42Q151.257 -2.793 151.2 -1.9127884615384616Q151.143 -1.032576923076923 151.143 -0.285Q151.143 0.0 150.8508 0.0H141.89Q141.852 0.0 141.852 -0.11399999999999999Q141.852 -0.22799999999999998 141.89 -0.22799999999999998Q142.47408988764045 -0.22799999999999998 142.76613483146068 -0.32299999999999995Q143.0581797752809 -0.418 143.15808988764044 -0.703Q143.25799999999998 -0.988 143.25799999999998 -1.539V-10.336Q143.25799999999998 -10.887 143.15808988764044 -11.1625Q143.0581797752809 -11.437999999999999 142.76613483146068 -11.5425Q142.47408988764045 -11.647 141.89 -11.647Q141.852 -11.647 141.852 -11.761Q141.852 -11.875 141.89 -11.875Q142.346 -11.875 142.97824400000002 -11.846499999999999Q143.610488 -11.818 144.296312 -11.818Q145.025 -11.818 145.6333475609756 -11.846499999999999Q146.2416951219512 -11.875 146.71599999999998 -11.875Q146.773 -11.875 146.773 -11.761Q146.773 -11.647 146.71599999999998 -11.647Q146.1400224719101 -11.647 145.85203370786516 -11.5425Q145.56404494382022 -11.437999999999999 145.4655224719101 -11.152999999999999Q145.367 -10.868 145.367 -10.317Z" fill="#2E1A0E"/>
</svg>
